<svg width="71" height="66" viewBox="0 0 71 66" fill="none" xmlns="http://www.w3.org/2000/svg">
<path fill-rule="evenodd" clip-rule="evenodd" d="M35.5 11C22.4292 11 11.8333 20.8497 11.8333 33C11.8333 38.7726 14.2238 44.0272 18.1404 47.9538C18.2883 47.499 18.485 47.0523 18.7415 46.6259C19.6113 45.1804 20.7084 43.8437 22.0102 42.6618C23.3167 41.4756 24.7906 40.4801 26.3804 39.6937C23.9591 37.5392 22.4453 34.528 22.4453 31.1667C22.4453 24.5245 28.3562 19.25 35.5 19.25C42.6437 19.25 48.5546 24.5245 48.5546 31.1667C48.5546 34.528 47.0408 37.5392 44.6195 39.6937C46.2093 40.4801 47.6832 41.4756 48.9897 42.6618C50.2915 43.8437 51.3887 45.1804 52.2584 46.6259C52.5149 47.0523 52.7116 47.499 52.8595 47.9538C56.7761 44.0272 59.1666 38.7726 59.1666 33C59.1666 20.8497 48.5707 11 35.5 11ZM47.1591 52.1501C47.274 51.6008 47.3315 51.0852 47.3333 50.6283C47.3361 49.8735 47.1873 49.4649 47.0945 49.3107C46.5012 48.3246 45.7506 47.409 44.8556 46.5964C42.386 44.3542 39.0219 43.0833 35.5 43.0833C31.978 43.0833 28.614 44.3542 26.1443 46.5964C25.2493 47.409 24.4987 48.3246 23.9054 49.3107C23.8126 49.4649 23.6638 49.8735 23.6667 50.6283C23.6684 51.0852 23.726 51.6008 23.8408 52.1501C27.2803 53.964 31.2562 55 35.5 55C39.7437 55 43.7197 53.964 47.1591 52.1501ZM35.5 37.5833C39.5083 37.5833 42.6379 34.6497 42.6379 31.1667C42.6379 27.6836 39.5083 24.75 35.5 24.75C31.4916 24.75 28.362 27.6836 28.362 31.1667C28.362 34.6497 31.4916 37.5833 35.5 37.5833ZM5.91663 33C5.91663 17.8122 19.1615 5.5 35.5 5.5C51.8384 5.5 65.0833 17.8122 65.0833 33C65.0833 42.7825 59.5863 51.3695 51.3211 56.2407C46.7437 58.9384 41.3135 60.5 35.5 60.5C29.6864 60.5 24.2562 58.9384 19.6788 56.2407C11.4136 51.3695 5.91663 42.7825 5.91663 33Z" fill="#586BFF"/>
</svg>
